<?xml version="1.0" encoding="UTF-8" standalone="no"?>
<!DOCTYPE svg PUBLIC "-//W3C//DTD SVG 1.1//EN"
 "http://www.w3.org/Graphics/SVG/1.1/DTD/svg11.dtd">
<!-- Generated by graphviz version 2.47.0 (20210316.0004)
 -->
<!-- Title: dependencies Pages: 1 -->
<svg width="1653pt" height="284pt"
 viewBox="0.00 0.00 1653.00 284.00" xmlns="http://www.w3.org/2000/svg" xmlns:xlink="http://www.w3.org/1999/xlink">
<g id="graph0" class="graph" transform="scale(1 1) rotate(0) translate(4 280)">
<title>dependencies</title>
<polygon fill="white" stroke="transparent" points="-4,4 -4,-280 1649,-280 1649,4 -4,4"/>
<text text-anchor="start" x="801.51" y="-42.4" font-family="Times-12" font-weight="bold" font-size="14.00">Legend</text>
<polygon fill="#ffffb3" stroke="transparent" points="588.5,-10 588.5,-30 608.5,-30 608.5,-10 588.5,-10"/>
<text text-anchor="start" x="612.13" y="-15.4" font-family="Times-12" font-size="14.00"> &#160;Declarations</text>
<polygon fill="#8dd3c7" stroke="transparent" points="701.5,-10 701.5,-30 721.5,-30 721.5,-10 701.5,-10"/>
<text text-anchor="start" x="725.23" y="-15.4" font-family="Times-12" font-size="14.00"> &#160;Module</text>
<polygon fill="#80b1d3" stroke="transparent" points="787.5,-10 787.5,-30 807.5,-30 807.5,-10 787.5,-10"/>
<text text-anchor="start" x="811.28" y="-15.4" font-family="Times-12" font-size="14.00"> &#160;Bootstrap</text>
<polygon fill="#fdb462" stroke="transparent" points="884.5,-10 884.5,-30 904.5,-30 904.5,-10 884.5,-10"/>
<text text-anchor="start" x="908.17" y="-15.4" font-family="Times-12" font-size="14.00"> &#160;Providers</text>
<polygon fill="#fb8072" stroke="transparent" points="980.5,-10 980.5,-30 1000.5,-30 1000.5,-10 980.5,-10"/>
<text text-anchor="start" x="1004.23" y="-15.4" font-family="Times-12" font-size="14.00"> &#160;Exports</text>
<g id="clust1" class="cluster">
<title>cluster_AppModule</title>
<polygon fill="none" stroke="black" stroke-dasharray="1,5" points="8,-70 8,-268 1637,-268 1637,-70 8,-70"/>
</g>
<g id="clust14" class="cluster">
<title>cluster_AppModule_providers</title>
<polygon fill="none" stroke="black" points="1413,-78 1413,-130 1629,-130 1629,-78 1413,-78"/>
</g>
<g id="clust11" class="cluster">
<title>cluster_AppModule_imports</title>
<polygon fill="none" stroke="black" points="1261,-78 1261,-130 1405,-130 1405,-78 1261,-78"/>
</g>
<g id="clust13" class="cluster">
<title>cluster_AppModule_bootstrap</title>
<polygon fill="none" stroke="black" points="772,-208 772,-260 896,-260 896,-208 772,-208"/>
</g>
<g id="clust2" class="cluster">
<title>cluster_AppModule_declarations</title>
<polygon fill="none" stroke="black" points="16,-78 16,-130 1253,-130 1253,-78 16,-78"/>
</g>
<!-- AppComponent -->
<g id="node1" class="node">
<title>AppComponent</title>
<polygon fill="#ffffb3" stroke="black" points="1244.94,-122 1139.06,-122 1139.06,-86 1244.94,-86 1244.94,-122"/>
<text text-anchor="middle" x="1192" y="-99.8" font-family="Times,serif" font-size="14.00">AppComponent</text>
</g>
<!-- AppModule -->
<g id="node9" class="node">
<title>AppModule</title>
<polygon fill="#8dd3c7" stroke="black" points="875.66,-187 872.66,-191 851.66,-191 848.66,-187 792.34,-187 792.34,-151 875.66,-151 875.66,-187"/>
<text text-anchor="middle" x="834" y="-164.8" font-family="Times,serif" font-size="14.00">AppModule</text>
</g>
<!-- AppComponent&#45;&gt;AppModule -->
<g id="edge1" class="edge">
<title>AppComponent&#45;&gt;AppModule</title>
<path fill="none" stroke="black" d="M1192,-122.27C1192,-140.56 1192,-166 1192,-166 1192,-166 885.77,-166 885.77,-166"/>
<polygon fill="black" stroke="black" points="885.77,-162.5 875.77,-166 885.77,-169.5 885.77,-162.5"/>
</g>
<!-- FeatureComponent -->
<g id="node2" class="node">
<title>FeatureComponent</title>
<polygon fill="#ffffb3" stroke="black" points="1121.81,-122 998.19,-122 998.19,-86 1121.81,-86 1121.81,-122"/>
<text text-anchor="middle" x="1060" y="-99.8" font-family="Times,serif" font-size="14.00">FeatureComponent</text>
</g>
<!-- FeatureComponent&#45;&gt;AppModule -->
<g id="edge2" class="edge">
<title>FeatureComponent&#45;&gt;AppModule</title>
<path fill="none" stroke="black" d="M1060,-122.01C1060,-138.05 1060,-159 1060,-159 1060,-159 885.72,-159 885.72,-159"/>
<polygon fill="black" stroke="black" points="885.72,-155.5 875.72,-159 885.72,-162.5 885.72,-155.5"/>
</g>
<!-- LoginPageComponent -->
<g id="node3" class="node">
<title>LoginPageComponent</title>
<polygon fill="#ffffb3" stroke="black" points="979.99,-122 838.01,-122 838.01,-86 979.99,-86 979.99,-122"/>
<text text-anchor="middle" x="909" y="-99.8" font-family="Times,serif" font-size="14.00">LoginPageComponent</text>
</g>
<!-- LoginPageComponent&#45;&gt;AppModule -->
<g id="edge3" class="edge">
<title>LoginPageComponent&#45;&gt;AppModule</title>
<path fill="none" stroke="black" d="M856.92,-122.11C856.92,-122.11 856.92,-140.99 856.92,-140.99"/>
<polygon fill="black" stroke="black" points="853.42,-140.99 856.92,-150.99 860.42,-140.99 853.42,-140.99"/>
</g>
<!-- NavbarComponent -->
<g id="node4" class="node">
<title>NavbarComponent</title>
<polygon fill="#ffffb3" stroke="black" points="820.03,-122 697.97,-122 697.97,-86 820.03,-86 820.03,-122"/>
<text text-anchor="middle" x="759" y="-99.8" font-family="Times,serif" font-size="14.00">NavbarComponent</text>
</g>
<!-- NavbarComponent&#45;&gt;AppModule -->
<g id="edge4" class="edge">
<title>NavbarComponent&#45;&gt;AppModule</title>
<path fill="none" stroke="black" d="M806.22,-122.11C806.22,-122.11 806.22,-140.99 806.22,-140.99"/>
<polygon fill="black" stroke="black" points="802.72,-140.99 806.22,-150.99 809.72,-140.99 802.72,-140.99"/>
</g>
<!-- ParameterComponent -->
<g id="node5" class="node">
<title>ParameterComponent</title>
<polygon fill="#ffffb3" stroke="black" points="680.08,-122 541.92,-122 541.92,-86 680.08,-86 680.08,-122"/>
<text text-anchor="middle" x="611" y="-99.8" font-family="Times,serif" font-size="14.00">ParameterComponent</text>
</g>
<!-- ParameterComponent&#45;&gt;AppModule -->
<g id="edge5" class="edge">
<title>ParameterComponent&#45;&gt;AppModule</title>
<path fill="none" stroke="black" d="M611,-122.01C611,-138.05 611,-159 611,-159 611,-159 782.32,-159 782.32,-159"/>
<polygon fill="black" stroke="black" points="782.32,-162.5 792.32,-159 782.32,-155.5 782.32,-162.5"/>
</g>
<!-- ProductComponent -->
<g id="node6" class="node">
<title>ProductComponent</title>
<polygon fill="#ffffb3" stroke="black" points="524.38,-122 399.62,-122 399.62,-86 524.38,-86 524.38,-122"/>
<text text-anchor="middle" x="462" y="-99.8" font-family="Times,serif" font-size="14.00">ProductComponent</text>
</g>
<!-- ProductComponent&#45;&gt;AppModule -->
<g id="edge6" class="edge">
<title>ProductComponent&#45;&gt;AppModule</title>
<path fill="none" stroke="black" d="M462,-122.27C462,-140.56 462,-166 462,-166 462,-166 782.05,-166 782.05,-166"/>
<polygon fill="black" stroke="black" points="782.05,-169.5 792.05,-166 782.05,-162.5 782.05,-169.5"/>
</g>
<!-- RegistrationPageComponent -->
<g id="node7" class="node">
<title>RegistrationPageComponent</title>
<polygon fill="#ffffb3" stroke="black" points="381.48,-122 204.52,-122 204.52,-86 381.48,-86 381.48,-122"/>
<text text-anchor="middle" x="293" y="-99.8" font-family="Times,serif" font-size="14.00">RegistrationPageComponent</text>
</g>
<!-- RegistrationPageComponent&#45;&gt;AppModule -->
<g id="edge7" class="edge">
<title>RegistrationPageComponent&#45;&gt;AppModule</title>
<path fill="none" stroke="black" d="M293,-122.13C293,-142.57 293,-173 293,-173 293,-173 782,-173 782,-173"/>
<polygon fill="black" stroke="black" points="782,-176.5 792,-173 782,-169.5 782,-176.5"/>
</g>
<!-- SummaryPageComponent -->
<g id="node8" class="node">
<title>SummaryPageComponent</title>
<polygon fill="#ffffb3" stroke="black" points="186.48,-122 23.52,-122 23.52,-86 186.48,-86 186.48,-122"/>
<text text-anchor="middle" x="105" y="-99.8" font-family="Times,serif" font-size="14.00">SummaryPageComponent</text>
</g>
<!-- SummaryPageComponent&#45;&gt;AppModule -->
<g id="edge8" class="edge">
<title>SummaryPageComponent&#45;&gt;AppModule</title>
<path fill="none" stroke="black" d="M105,-122.01C105,-144.49 105,-180 105,-180 105,-180 782.19,-180 782.19,-180"/>
<polygon fill="black" stroke="black" points="782.19,-183.5 792.19,-180 782.19,-176.5 782.19,-183.5"/>
</g>
<!-- AppComponent  -->
<g id="node11" class="node">
<title>AppComponent </title>
<polygon fill="#80b1d3" stroke="black" points="888.44,-252 779.56,-252 779.56,-216 888.44,-216 888.44,-252"/>
<text text-anchor="middle" x="834" y="-229.8" font-family="Times,serif" font-size="14.00">AppComponent </text>
</g>
<!-- AppModule&#45;&gt;AppComponent  -->
<g id="edge10" class="edge">
<title>AppModule&#45;&gt;AppComponent </title>
<path fill="none" stroke="black" stroke-dasharray="1,5" d="M834,-187.11C834,-187.11 834,-205.99 834,-205.99"/>
<polygon fill="black" stroke="black" points="830.5,-205.99 834,-215.99 837.5,-205.99 830.5,-205.99"/>
</g>
<!-- AppRoutingModule -->
<g id="node10" class="node">
<title>AppRoutingModule</title>
<polygon fill="#8dd3c7" stroke="black" points="1397.27,-122 1394.27,-126 1373.27,-126 1370.27,-122 1268.73,-122 1268.73,-86 1397.27,-86 1397.27,-122"/>
<text text-anchor="middle" x="1333" y="-99.8" font-family="Times,serif" font-size="14.00">AppRoutingModule</text>
</g>
<!-- AppRoutingModule&#45;&gt;AppModule -->
<g id="edge9" class="edge">
<title>AppRoutingModule&#45;&gt;AppModule</title>
<path fill="none" stroke="black" d="M1333,-122.13C1333,-142.57 1333,-173 1333,-173 1333,-173 885.69,-173 885.69,-173"/>
<polygon fill="black" stroke="black" points="885.69,-169.5 875.69,-173 885.69,-176.5 885.69,-169.5"/>
</g>
<!-- HttpInterceptorService -->
<g id="node12" class="node">
<title>HttpInterceptorService</title>
<ellipse fill="#fdb462" stroke="black" cx="1521" cy="-104" rx="99.53" ry="18"/>
<text text-anchor="middle" x="1521" y="-99.8" font-family="Times,serif" font-size="14.00">HttpInterceptorService</text>
</g>
<!-- HttpInterceptorService&#45;&gt;AppModule -->
<g id="edge11" class="edge">
<title>HttpInterceptorService&#45;&gt;AppModule</title>
<path fill="none" stroke="black" d="M1521,-122.01C1521,-144.49 1521,-180 1521,-180 1521,-180 885.68,-180 885.68,-180"/>
<polygon fill="black" stroke="black" points="885.68,-176.5 875.68,-180 885.68,-183.5 885.68,-176.5"/>
</g>
</g>
</svg>
