<?xml version="1.0" encoding="UTF-8" standalone="no"?>
<!DOCTYPE svg PUBLIC "-//W3C//DTD SVG 1.1//EN"
 "http://www.w3.org/Graphics/SVG/1.1/DTD/svg11.dtd">
<!-- Generated by graphviz version 2.47.0 (20210316.0004)
 -->
<!-- Title: dependencies Pages: 1 -->
<svg width="1653pt" height="284pt"
 viewBox="0.00 0.00 1653.00 284.00" xmlns="http://www.w3.org/2000/svg" xmlns:xlink="http://www.w3.org/1999/xlink">
<g id="graph0" class="graph" transform="scale(1 1) rotate(0) translate(4 280)">
<title>dependencies</title>
<polygon fill="white" stroke="transparent" points="-4,4 -4,-280 1649,-280 1649,4 -4,4"/>
<text text-anchor="start" x="801.51" y="-42.4" font-family="Times-12" font-weight="bold" font-size="14.00">Legend</text>
<polygon fill="#ffffb3" stroke="transparent" points="588.5,-10 588.5,-30 608.5,-30 608.5,-10 588.5,-10"/>
<text text-anchor="start" x="612.13" y="-15.4" font-family="Times-12" font-size="14.00"> &#160;Declarations</text>
<polygon fill="#8dd3c7" stroke="transparent" points="701.5,-10 701.5,-30 721.5,-30 721.5,-10 701.5,-10"/>
<text text-anchor="start" x="725.23" y="-15.4" font-family="Times-12" font-size="14.00"> &#160;Module</text>
<polygon fill="#80b1d3" stroke="transparent" points="787.5,-10 787.5,-30 807.5,-30 807.5,-10 787.5,-10"/>
<text text-anchor="start" x="811.28" y="-15.4" font-family="Times-12" font-size="14.00"> &#160;Bootstrap</text>
<polygon fill="#fdb462" stroke="transparent" points="884.5,-10 884.5,-30 904.5,-30 904.5,-10 884.5,-10"/>
<text text-anchor="start" x="908.17" y="-15.4" font-family="Times-12" font-size="14.00"> &#160;Providers</text>
<polygon fill="#fb8072" stroke="transparent" points="980.5,-10 980.5,-30 1000.5,-30 1000.5,-10 980.5,-10"/>
<text text-anchor="start" x="1004.23" y="-15.4" font-family="Times-12" font-size="14.00"> &#160;Exports</text>
<g id="clust1" class="cluster">
<title>cluster_AppModule</title>
<polygon fill="none" stroke="black" stroke-dasharray="1,5" points="8,-70 8,-268 1637,-268 1637,-70 8,-70"/>
</g>
<g id="clust2" class="cluster">
<title>cluster_AppModule_declarations</title>
<polygon fill="none" stroke="black" points="392,-78 392,-130 1629,-130 1629,-78 392,-78"/>
</g>
<g id="clust11" class="cluster">
<title>cluster_AppModule_imports</title>
<polygon fill="none" stroke="black" points="240,-78 240,-130 384,-130 384,-78 240,-78"/>
</g>
<g id="clust13" class="cluster">
<title>cluster_AppModule_bootstrap</title>
<polygon fill="none" stroke="black" points="850,-208 850,-260 974,-260 974,-208 850,-208"/>
</g>
<g id="clust14" class="cluster">
<title>cluster_AppModule_providers</title>
<polygon fill="none" stroke="black" points="16,-78 16,-130 232,-130 232,-78 16,-78"/>
</g>
<!-- AppComponent -->
<g id="node1" class="node">
<title>AppComponent</title>
<polygon fill="#ffffb3" stroke="black" points="1620.94,-122 1515.06,-122 1515.06,-86 1620.94,-86 1620.94,-122"/>
<text text-anchor="middle" x="1568" y="-99.8" font-family="Times,serif" font-size="14.00">AppComponent</text>
</g>
<!-- AppModule -->
<g id="node9" class="node">
<title>AppModule</title>
<polygon fill="#8dd3c7" stroke="black" points="953.66,-187 950.66,-191 929.66,-191 926.66,-187 870.34,-187 870.34,-151 953.66,-151 953.66,-187"/>
<text text-anchor="middle" x="912" y="-164.8" font-family="Times,serif" font-size="14.00">AppModule</text>
</g>
<!-- AppComponent&#45;&gt;AppModule -->
<g id="edge1" class="edge">
<title>AppComponent&#45;&gt;AppModule</title>
<path fill="none" stroke="black" d="M1568,-122.01C1568,-144.49 1568,-180 1568,-180 1568,-180 963.78,-180 963.78,-180"/>
<polygon fill="black" stroke="black" points="963.78,-176.5 953.78,-180 963.78,-183.5 963.78,-176.5"/>
</g>
<!-- FeatureComponent -->
<g id="node2" class="node">
<title>FeatureComponent</title>
<polygon fill="#ffffb3" stroke="black" points="1497.81,-122 1374.19,-122 1374.19,-86 1497.81,-86 1497.81,-122"/>
<text text-anchor="middle" x="1436" y="-99.8" font-family="Times,serif" font-size="14.00">FeatureComponent</text>
</g>
<!-- FeatureComponent&#45;&gt;AppModule -->
<g id="edge2" class="edge">
<title>FeatureComponent&#45;&gt;AppModule</title>
<path fill="none" stroke="black" d="M1436,-122.13C1436,-142.57 1436,-173 1436,-173 1436,-173 964,-173 964,-173"/>
<polygon fill="black" stroke="black" points="964,-169.5 954,-173 964,-176.5 964,-169.5"/>
</g>
<!-- LoginPageComponent -->
<g id="node3" class="node">
<title>LoginPageComponent</title>
<polygon fill="#ffffb3" stroke="black" points="1355.99,-122 1214.01,-122 1214.01,-86 1355.99,-86 1355.99,-122"/>
<text text-anchor="middle" x="1285" y="-99.8" font-family="Times,serif" font-size="14.00">LoginPageComponent</text>
</g>
<!-- LoginPageComponent&#45;&gt;AppModule -->
<g id="edge3" class="edge">
<title>LoginPageComponent&#45;&gt;AppModule</title>
<path fill="none" stroke="black" d="M1285,-122.27C1285,-140.56 1285,-166 1285,-166 1285,-166 963.7,-166 963.7,-166"/>
<polygon fill="black" stroke="black" points="963.7,-162.5 953.7,-166 963.7,-169.5 963.7,-162.5"/>
</g>
<!-- NavbarComponent -->
<g id="node4" class="node">
<title>NavbarComponent</title>
<polygon fill="#ffffb3" stroke="black" points="1196.03,-122 1073.97,-122 1073.97,-86 1196.03,-86 1196.03,-122"/>
<text text-anchor="middle" x="1135" y="-99.8" font-family="Times,serif" font-size="14.00">NavbarComponent</text>
</g>
<!-- NavbarComponent&#45;&gt;AppModule -->
<g id="edge4" class="edge">
<title>NavbarComponent&#45;&gt;AppModule</title>
<path fill="none" stroke="black" d="M1135,-122.01C1135,-138.05 1135,-159 1135,-159 1135,-159 963.68,-159 963.68,-159"/>
<polygon fill="black" stroke="black" points="963.68,-155.5 953.68,-159 963.68,-162.5 963.68,-155.5"/>
</g>
<!-- ParameterComponent -->
<g id="node5" class="node">
<title>ParameterComponent</title>
<polygon fill="#ffffb3" stroke="black" points="1056.08,-122 917.92,-122 917.92,-86 1056.08,-86 1056.08,-122"/>
<text text-anchor="middle" x="987" y="-99.8" font-family="Times,serif" font-size="14.00">ParameterComponent</text>
</g>
<!-- ParameterComponent&#45;&gt;AppModule -->
<g id="edge5" class="edge">
<title>ParameterComponent&#45;&gt;AppModule</title>
<path fill="none" stroke="black" d="M935.9,-122.11C935.9,-122.11 935.9,-140.99 935.9,-140.99"/>
<polygon fill="black" stroke="black" points="932.4,-140.99 935.9,-150.99 939.4,-140.99 932.4,-140.99"/>
</g>
<!-- ProductComponent -->
<g id="node6" class="node">
<title>ProductComponent</title>
<polygon fill="#ffffb3" stroke="black" points="900.38,-122 775.62,-122 775.62,-86 900.38,-86 900.38,-122"/>
<text text-anchor="middle" x="838" y="-99.8" font-family="Times,serif" font-size="14.00">ProductComponent</text>
</g>
<!-- ProductComponent&#45;&gt;AppModule -->
<g id="edge6" class="edge">
<title>ProductComponent&#45;&gt;AppModule</title>
<path fill="none" stroke="black" d="M885.31,-122.11C885.31,-122.11 885.31,-140.99 885.31,-140.99"/>
<polygon fill="black" stroke="black" points="881.81,-140.99 885.31,-150.99 888.81,-140.99 881.81,-140.99"/>
</g>
<!-- RegistrationPageComponent -->
<g id="node7" class="node">
<title>RegistrationPageComponent</title>
<polygon fill="#ffffb3" stroke="black" points="757.48,-122 580.52,-122 580.52,-86 757.48,-86 757.48,-122"/>
<text text-anchor="middle" x="669" y="-99.8" font-family="Times,serif" font-size="14.00">RegistrationPageComponent</text>
</g>
<!-- RegistrationPageComponent&#45;&gt;AppModule -->
<g id="edge7" class="edge">
<title>RegistrationPageComponent&#45;&gt;AppModule</title>
<path fill="none" stroke="black" d="M669,-122.01C669,-138.05 669,-159 669,-159 669,-159 860.23,-159 860.23,-159"/>
<polygon fill="black" stroke="black" points="860.23,-162.5 870.23,-159 860.23,-155.5 860.23,-162.5"/>
</g>
<!-- SummaryPageComponent -->
<g id="node8" class="node">
<title>SummaryPageComponent</title>
<polygon fill="#ffffb3" stroke="black" points="562.48,-122 399.52,-122 399.52,-86 562.48,-86 562.48,-122"/>
<text text-anchor="middle" x="481" y="-99.8" font-family="Times,serif" font-size="14.00">SummaryPageComponent</text>
</g>
<!-- SummaryPageComponent&#45;&gt;AppModule -->
<g id="edge8" class="edge">
<title>SummaryPageComponent&#45;&gt;AppModule</title>
<path fill="none" stroke="black" d="M481,-122.27C481,-140.56 481,-166 481,-166 481,-166 860.28,-166 860.28,-166"/>
<polygon fill="black" stroke="black" points="860.28,-169.5 870.28,-166 860.28,-162.5 860.28,-169.5"/>
</g>
<!-- AppComponent  -->
<g id="node11" class="node">
<title>AppComponent </title>
<polygon fill="#80b1d3" stroke="black" points="966.44,-252 857.56,-252 857.56,-216 966.44,-216 966.44,-252"/>
<text text-anchor="middle" x="912" y="-229.8" font-family="Times,serif" font-size="14.00">AppComponent </text>
</g>
<!-- AppModule&#45;&gt;AppComponent  -->
<g id="edge10" class="edge">
<title>AppModule&#45;&gt;AppComponent </title>
<path fill="none" stroke="black" stroke-dasharray="1,5" d="M912,-187.11C912,-187.11 912,-205.99 912,-205.99"/>
<polygon fill="black" stroke="black" points="908.5,-205.99 912,-215.99 915.5,-205.99 908.5,-205.99"/>
</g>
<!-- AppRoutingModule -->
<g id="node10" class="node">
<title>AppRoutingModule</title>
<polygon fill="#8dd3c7" stroke="black" points="376.27,-122 373.27,-126 352.27,-126 349.27,-122 247.73,-122 247.73,-86 376.27,-86 376.27,-122"/>
<text text-anchor="middle" x="312" y="-99.8" font-family="Times,serif" font-size="14.00">AppRoutingModule</text>
</g>
<!-- AppRoutingModule&#45;&gt;AppModule -->
<g id="edge9" class="edge">
<title>AppRoutingModule&#45;&gt;AppModule</title>
<path fill="none" stroke="black" d="M312,-122.13C312,-142.57 312,-173 312,-173 312,-173 860.29,-173 860.29,-173"/>
<polygon fill="black" stroke="black" points="860.29,-176.5 870.29,-173 860.29,-169.5 860.29,-176.5"/>
</g>
<!-- HttpInterceptorService -->
<g id="node12" class="node">
<title>HttpInterceptorService</title>
<ellipse fill="#fdb462" stroke="black" cx="124" cy="-104" rx="99.53" ry="18"/>
<text text-anchor="middle" x="124" y="-99.8" font-family="Times,serif" font-size="14.00">HttpInterceptorService</text>
</g>
<!-- HttpInterceptorService&#45;&gt;AppModule -->
<g id="edge11" class="edge">
<title>HttpInterceptorService&#45;&gt;AppModule</title>
<path fill="none" stroke="black" d="M124,-122.01C124,-144.49 124,-180 124,-180 124,-180 860.19,-180 860.19,-180"/>
<polygon fill="black" stroke="black" points="860.19,-183.5 870.19,-180 860.19,-176.5 860.19,-183.5"/>
</g>
</g>
</svg>
